# xmcd
#
# Track frame offsets:
#	150
#	15115
#	34057
#	47592
#	65192
#	77642
#	94927
#	108937
#	124877
#	142430
#	158385
#	173222
#	189102
#	205895
#	219250
#
# Disc length: 3144 seconds
#
# Revision: 1
# Processed by: cddbd v1.5.1PL2 Copyright (c) Steve Scherf et al.
# Submitted via: audiograbber 1.83.01
#
DISCID=c50c460f
DTITLE=Music Maestro - MM6235
DYEAR=1900
DGENRE=Karaoke
TTITLE0=Hill, Faith - This Kiss
TTITLE1=Chesney, Kenny - That's Why I'm Here
TTITLE2=Allan, Gary - It Would Be You
TTITLE3=Harling, Keith - Papa Bear
TTITLE4=Austin, Sherrie - Put Your Heart Into It
TTITLE5=Lynns, The - Woman To Woman
TTITLE6=Cactus Choir - Step Right Up
TTITLE7=McCann, Lila - Almost Over You
TTITLE8=Crittendon, Melodie - Broken Road
TTITLE9=Messina, Jo Dee - Bye Bye
TTITLE10=Alabama - She's Got That Look In Her Eye
TTITLE11=Anderson, John - Takin' The Country Back
TTITLE12=Parnell, Leroy - All That Matters Anymore
TTITLE13=Chestnutt, Mark - I Might Even Quit Lovin' You
TTITLE14=McGraw, Tim - You Turn Me On
EXTD=As Listed In KJ Pro
EXTT0=
EXTT1=
EXTT2=
EXTT3=
EXTT4=
EXTT5=
EXTT6=
EXTT7=
EXTT8=
EXTT9=
EXTT10=
EXTT11=
EXTT12=
EXTT13=
EXTT14=
PLAYORDER=
